<?xml version="1.0" encoding="UTF-8"?>
<svg enable-background="new 0 0 256 256" version="1.1" viewBox="0 0 256 256" xml:space="preserve" xmlns="http://www.w3.org/2000/svg" xmlns:cc="http://creativecommons.org/ns#" xmlns:dc="http://purl.org/dc/elements/1.1/" xmlns:rdf="http://www.w3.org/1999/02/22-rdf-syntax-ns#"><metadata><rdf:RDF><cc:Work rdf:about=""><dc:format>image/svg+xml</dc:format><dc:type rdf:resource="http://purl.org/dc/dcmitype/StillImage"/><dc:title/></cc:Work></rdf:RDF></metadata>
<style type="text/css">
	.st0{fill:#F4EFED;}
	.st1{fill:#D6D1CF;}
	.st2{fill:#FFFFFF;}
	.st3{fill:#526FAA;}
	.st4{fill:#34518C;}
	.st5{fill:#708DC8;}
	.st6{fill:#690589;}
	.st7{fill:#FCC24C;}
	.st8{fill:#DEA42E;}
	.st9{fill:#FCE06A;}
	.st10{fill:#FF4397;}
	.st11{fill:#FF61B5;}
	.st12{fill:#E12579;}
	.st13{fill:#FF9F70;}
	.st14{fill:#E18152;}
	.st15{fill:#FFBD8E;}
</style>

		<path class="st6" d="m128 77.944c-10.592 0-19.209-8.617-19.209-19.209v-12.515c0-1.104 0.895-2 2-2 1.104 0 2 0.896 2 2v12.516c0 8.387 6.822 15.209 15.209 15.209s15.209-6.822 15.209-15.209v-12.516c0-1.104 0.896-2 2-2 1.105 0 2 0.896 2 2v12.516c0 10.591-8.617 19.208-19.209 19.208z"/>
	
		
			<circle class="st10" transform="matrix(.9107 -.413 .413 .9107 -24.37 60.596)" cx="128" cy="86.675" r="23.848"/>
	
		<path class="st12" d="m128 62.828c-1.1 0-2.181 0.081-3.242 0.225 11.636 1.583 20.605 11.552 20.605 23.622s-8.969 22.04-20.605 23.622c1.061 0.144 2.142 0.225 3.242 0.225 13.171 0 23.848-10.677 23.848-23.848 0-13.169-10.677-23.846-23.848-23.846z"/>
	
		<path class="st11" d="m128 110.52c1.1 0 2.181-0.081 3.242-0.225-11.636-1.583-20.605-11.552-20.605-23.622s8.969-22.04 20.605-23.622c-1.061-0.144-2.142-0.225-3.242-0.225-13.171 0-23.848 10.677-23.848 23.847s10.677 23.847 23.848 23.847z"/>
	
		<path class="st6" d="m128 112.52c-14.253 0-25.848-11.595-25.848-25.848 0-14.252 11.595-25.847 25.848-25.847s25.848 11.595 25.848 25.847c0 14.254-11.595 25.848-25.848 25.848zm0-47.694c-12.047 0-21.848 9.801-21.848 21.847 0 12.047 9.801 21.848 21.848 21.848s21.848-9.801 21.848-21.848c0-12.046-9.801-21.847-21.848-21.847z"/>
	
		<path class="st6" d="m161.86 112.51h-67.72c-13.134 0-23.818-10.685-23.818-23.817v-12.753c0-1.104 0.896-2 2-2s2 0.896 2 2v12.752c0 10.928 8.891 19.817 19.818 19.817h67.721c10.928 0 19.818-8.89 19.818-19.817v-12.752c0-1.104 0.896-2 2-2 1.105 0 2 0.896 2 2v12.752c0 13.133-10.685 23.818-23.819 23.818z"/>
	
		<path class="st6" d="m194.2 163.16c-1.105 0-2-0.895-2-2v-15.161c0-13.201-10.739-23.94-23.941-23.94h-80.521c-13.201 0-23.94 10.739-23.94 23.94v15.161c0 1.105-0.896 2-2 2s-2-0.895-2-2v-15.161c0-15.406 12.534-27.94 27.94-27.94h80.521c15.406 0 27.941 12.534 27.941 27.94v15.161c0 1.105-0.895 2-2 2z"/>
	
		<path class="st6" d="m183.68 192.3c-1.104 0-2-0.896-2-2v-12.751c0-10.928-8.891-19.817-19.818-19.817h-67.721c-10.928 0-19.818 8.89-19.818 19.817v12.751c0 1.104-0.896 2-2 2s-2-0.896-2-2v-12.751c0-13.133 10.685-23.817 23.818-23.817h67.721c13.134 0 23.818 10.685 23.818 23.817v12.751c0 1.104-0.896 2-2 2z"/>
	
		
			<circle class="st10" transform="matrix(.1744 -.9847 .9847 .1744 -26.688 237.01)" cx="128" cy="134.42" r="47.695"/>
	
		<path class="st12" d="m128 86.726c-1.366 0-2.715 0.071-4.053 0.184 24.442 2.059 43.642 22.536 43.642 47.511s-19.2 45.453-43.642 47.511c1.337 0.113 2.686 0.184 4.053 0.184 26.341 0 47.695-21.354 47.695-47.695 0-26.342-21.354-47.695-47.695-47.695z"/>
	
		<path class="st11" d="m128 182.12c1.366 0 2.715-0.071 4.053-0.184-24.443-2.059-43.642-22.537-43.642-47.511 0-24.975 19.2-45.453 43.642-47.511-1.337-0.113-2.686-0.184-4.053-0.184-26.341 0-47.695 21.354-47.695 47.695s21.354 47.695 47.695 47.695z"/>
	
		<path class="st6" d="m88.238 138.56c-1.104 0-2-0.895-2-2 0-4.132 0.334-8.277 0.994-12.322 0.178-1.089 1.2-1.836 2.296-1.651 1.09 0.178 1.829 1.205 1.651 2.296-0.625 3.832-0.941 7.762-0.941 11.678 0 1.103-0.895 1.999-2 1.999z"/>
	
		<path class="st6" d="m128 184.12c-27.402 0-49.695-22.293-49.695-49.694 0-27.402 22.293-49.695 49.695-49.695s49.695 22.293 49.695 49.695c0 27.401-22.293 49.694-49.695 49.694zm0-95.389c-25.196 0-45.695 20.499-45.695 45.695s20.499 45.694 45.695 45.694 45.695-20.498 45.695-45.694-20.499-45.695-45.695-45.695z"/>
	
		<path class="st6" d="m128 184.12c-1.104 0-2-0.896-2-2v-95.39c0-1.104 0.896-2 2-2 1.105 0 2 0.896 2 2v95.39c0 1.105-0.895 2-2 2z"/>
	
</svg>
